<?xml version="1.0" encoding="utf-8" ?>
<?xml-stylesheet type="text/css" href="src/main.css" ?>
<svg id="drawing" xmlns="http://www.w3.org/2000/svg" xmlns:xlink="http://www.w3.org/1999/xlink" version="1.1">
  <defs>
    <g id="icons">
      <symbol id="icon-add" viewBox="0 0 1536 1536"><path d="M 1216,832 V 704 q 0,-26 -19,-45 -19,-19 -45,-19 H 896 V 384 q 0,-26 -19,-45 -19,-19 -45,-19 H 704 q -26,0 -45,19 -19,19 -19,45 V 640 H 384 q -26,0 -45,19 -19,19 -19,45 v 128 q 0,26 19,45 19,19 45,19 h 256 v 256 q 0,26 19,45 19,19 45,19 h 128 q 26,0 45,-19 19,-19 19,-45 V 896 h 256 q 26,0 45,-19 19,-19 19,-45 z m 320,-64 q 0,209 -103,385.5 Q 1330,1330 1153.5,1433 977,1536 768,1536 559,1536 382.5,1433 206,1330 103,1153.5 0,977 0,768 0,559 103,382.5 206,206 382.5,103 559,0 768,0 977,0 1153.5,103 1330,206 1433,382.5 1536,559 1536,768 Z"/></symbol>
      <symbol id="icon-remove" viewBox="0 0 1536 1536"><path d="m 1149,542 q 0,26 -19,45 l -181,181 181,181 q 19,19 19,45 0,27 -19,46 l -90,90 q -19,19 -46,19 -26,0 -45,-19 L 768,949 587,1130 q -19,19 -45,19 -27,0 -46,-19 l -90,-90 q -19,-19 -19,-46 0,-26 19,-45 L 587,768 406,587 q -19,-19 -19,-45 0,-27 19,-46 l 90,-90 q 19,-19 46,-19 26,0 45,19 L 768,587 949,406 q 19,-19 45,-19 27,0 46,19 l 90,90 q 19,19 19,46 z m 387,226 Q 1536,559 1433,382.5 1330,206 1153.5,103 977,0 768,0 559,0 382.5,103 206,206 103,382.5 0,559 0,768 0,977 103,1153.5 206,1330 382.5,1433 559,1536 768,1536 977,1536 1153.5,1433 1330,1330 1433,1153.5 1536,977 1536,768 Z"/></symbol>
      <symbol id="icon-save" viewBox="0 0 230 231"><path d="M 0.5 0 L 0.5 231 L 230.5 231 L 230.5 32.67 L 198.5 0 L 181.5 0 L 181.5 83 L 49.5 83 L 49.5 0 L 0.5 0 z M 131.5 0 L 131.5 66 L 164.5 66 L 164.5 0 L 131.5 0 z M 32.5 116 L 197.5 116 L 197.5 199 L 32.5 199 L 32.5 116 z"/></symbol>
      <symbol id="icon-link" viewBox="0 0 20 20"><path d="M 10 0 A 10 10 0 0 0 0 10 A 10 10 0 0 0 10 20 A 10 10 0 0 0 20 10 A 10 10 0 0 0 10 0 z M 10 1.6 C 11.3 1.6 12.4 2.67 12.4 4 C 12.4 4.96 11.8 5.8 11 6.2 L 11 13.8 C 11.8 14.2 12.4 15 12.4 16 C 12.4 17.33 11.33 18.4 10 18.4 C 8.67 18.4 7.6 17.33 7.6 16 C 7.6 15 8.2 14.2 9 13.8 L 9 6.2 C 8.2 5.8 7.6 4.97 7.6 4 C 7.6 2.67 8.67 1.6 10 1.6 z M 10 2.62 C 9.24 2.62 8.62 3.23 8.62 4 C 8.62 4.76 9.24 5.38 10 5.38 C 10.76 5.38 11.38 4.76 11.38 4 C 11.38 3.23 10.76 2.62 10 2.62 z M 10 14.62 C 9.23 14.62 8.62 15.23 8.62 16 C 8.62 16.76 9.23 17.38 10 17.38 C 10.76 17.38 11.38 16.76 11.38 16 C 11.38 15.23 10.76 14.62 10 14.62 z"/></symbol>
      <symbol id="icon-unlink" viewBox="0 0 20 20"><path d="M 10,0 C 4.48,0 0,4.48 0,10 0,15.52 4.48,20 10,20 15.52,20 20,15.52 20,10 20,4.48 15.52,0 10,0 Z m 0,1.6 C 11.3,1.6 12.4,2.67 12.4,4 12.4,4.96 11.8,5.8 11,6.2 v 1.1 l -2,2 V 6.2 C 8.2,5.8 7.6,4.97 7.6,4 7.6,2.67 8.67,1.6 10,1.6 Z m 0,1.02 C 9.24,2.62 8.62,3.23 8.62,4 8.62,4.76 9.24,5.38 10,5.38 10.76,5.38 11.38,4.76 11.38,4 11.38,3.23 10.76,2.62 10,2.62 Z m -1,10.13 2,-2 v 3.05 C 11.8,14.2 12.4,15 12.4,16 12.4,17.33 11.33,18.4 10,18.4 8.67,18.4 7.6,17.33 7.6,16 7.6,15 8.2,14.2 9,13.8 Z m 1,1.87 C 9.23,14.62 8.62,15.23 8.62,16 8.62,16.76 9.23,17.38 10,17.38 10.76,17.38 11.38,16.76 11.38,16 11.38,15.23 10.76,14.62 10,14.62 Z"/></symbol>
    </g>
  </defs>
  <g id="container">
    <g id="links"/>
    <g id="markers"/>
    <g id="items"/>
  </g>
  <script type="text/javascript" xlink:href="https://cdnjs.cloudflare.com/ajax/libs/svg.js/2.7.1/svg.min.js"></script>
  <script type="text/javascript" xlink:href="https://cdnjs.cloudflare.com/ajax/libs/svg.draggy.js/1.1.1/svg.draggy.min.js"></script>
  <script type="text/javascript" xlink:href="lib/svg.connectable-1.0.1-mod.js"></script>
  <script type="text/javascript" xlink:href="src/main.js"></script>
</svg>
