<?xml version="1.0" encoding="utf-8" ?>
<?xml-stylesheet type="text/css" href="src/main.css" ?>
<svg xmlns="http://www.w3.org/2000/svg" xmlns:xlink="http://www.w3.org/1999/xlink" version="1.1">
  <defs>
    <g id="icons">
      <symbol id="icon-add" viewBox="0 0 1536 1536"><path d="M 1216,832 V 704 q 0,-26 -19,-45 -19,-19 -45,-19 H 896 V 384 q 0,-26 -19,-45 -19,-19 -45,-19 H 704 q -26,0 -45,19 -19,19 -19,45 V 640 H 384 q -26,0 -45,19 -19,19 -19,45 v 128 q 0,26 19,45 19,19 45,19 h 256 v 256 q 0,26 19,45 19,19 45,19 h 128 q 26,0 45,-19 19,-19 19,-45 V 896 h 256 q 26,0 45,-19 19,-19 19,-45 z m 320,-64 q 0,209 -103,385.5 Q 1330,1330 1153.5,1433 977,1536 768,1536 559,1536 382.5,1433 206,1330 103,1153.5 0,977 0,768 0,559 103,382.5 206,206 382.5,103 559,0 768,0 977,0 1153.5,103 1330,206 1433,382.5 1536,559 1536,768 Z"/></symbol>
      <symbol id="icon-remove" viewBox="0 0 1536 1536"><path d="m 1149,542 q 0,26 -19,45 l -181,181 181,181 q 19,19 19,45 0,27 -19,46 l -90,90 q -19,19 -46,19 -26,0 -45,-19 L 768,949 587,1130 q -19,19 -45,19 -27,0 -46,-19 l -90,-90 q -19,-19 -19,-46 0,-26 19,-45 L 587,768 406,587 q -19,-19 -19,-45 0,-27 19,-46 l 90,-90 q 19,-19 46,-19 26,0 45,19 L 768,587 949,406 q 19,-19 45,-19 27,0 46,19 l 90,90 q 19,19 19,46 z m 387,226 Q 1536,559 1433,382.5 1330,206 1153.5,103 977,0 768,0 559,0 382.5,103 206,206 103,382.5 0,559 0,768 0,977 103,1153.5 206,1330 382.5,1433 559,1536 768,1536 977,1536 1153.5,1433 1330,1330 1433,1153.5 1536,977 1536,768 Z"/></symbol>
      <symbol id="icon-save" viewBox="0 0 230 231"><path d="M 0.5 0 L 0.5 231 L 230.5 231 L 230.5 32.67 L 198.5 0 L 181.5 0 L 181.5 83 L 49.5 83 L 49.5 0 L 0.5 0 z M 131.5 0 L 131.5 66 L 164.5 66 L 164.5 0 L 131.5 0 z M 32.5 116 L 197.5 116 L 197.5 199 L 32.5 199 L 32.5 116 z"/></symbol>
      <symbol id="icon-link" viewBox="0 0 20 20"><path d="M 10 0 A 10 10 0 0 0 0 10 A 10 10 0 0 0 10 20 A 10 10 0 0 0 20 10 A 10 10 0 0 0 10 0 z M 10 1.6 C 11.3 1.6 12.4 2.67 12.4 4 C 12.4 4.96 11.8 5.8 11 6.2 L 11 13.8 C 11.8 14.2 12.4 15 12.4 16 C 12.4 17.33 11.33 18.4 10 18.4 C 8.67 18.4 7.6 17.33 7.6 16 C 7.6 15 8.2 14.2 9 13.8 L 9 6.2 C 8.2 5.8 7.6 4.97 7.6 4 C 7.6 2.67 8.67 1.6 10 1.6 z M 10 2.62 C 9.24 2.62 8.62 3.23 8.62 4 C 8.62 4.76 9.24 5.38 10 5.38 C 10.76 5.38 11.38 4.76 11.38 4 C 11.38 3.23 10.76 2.62 10 2.62 z M 10 14.62 C 9.23 14.62 8.62 15.23 8.62 16 C 8.62 16.76 9.23 17.38 10 17.38 C 10.76 17.38 11.38 16.76 11.38 16 C 11.38 15.23 10.76 14.62 10 14.62 z"/></symbol>
      <symbol id="icon-unlink" viewBox="0 0 20 20"><path d="M 10,0 C 4.48,0 0,4.48 0,10 0,15.52 4.48,20 10,20 15.52,20 20,15.52 20,10 20,4.48 15.52,0 10,0 Z m 0,1.6 C 11.3,1.6 12.4,2.67 12.4,4 12.4,4.96 11.8,5.8 11,6.2 v 1.1 l -2,2 V 6.2 C 8.2,5.8 7.6,4.97 7.6,4 7.6,2.67 8.67,1.6 10,1.6 Z m 0,1.02 C 9.24,2.62 8.62,3.23 8.62,4 8.62,4.76 9.24,5.38 10,5.38 10.76,5.38 11.38,4.76 11.38,4 11.38,3.23 10.76,2.62 10,2.62 Z m -1,10.13 2,-2 v 3.05 C 11.8,14.2 12.4,15 12.4,16 12.4,17.33 11.33,18.4 10,18.4 8.67,18.4 7.6,17.33 7.6,16 7.6,15 8.2,14.2 9,13.8 Z m 1,1.87 C 9.23,14.62 8.62,15.23 8.62,16 8.62,16.76 9.23,17.38 10,17.38 10.76,17.38 11.38,16.76 11.38,16 11.38,15.23 10.76,14.62 10,14.62 Z"/></symbol>
      <symbol id="icon-force" viewBox="0 0 200 200"><path d="M 100,0 C 44.8,0 0,44.8 0,100 0,155.2 44.8,200 100,200 155.2,200 200,155.2 200,100 200,44.8 155.2,0 100,0 Z M 84.5,30.5 C 93.2,37 98.4,45.1 98.3,54.4 89.4,55.8 78.0,51.5 72.1,47.1 64.9,41.0 59.6,32.8 58.4,23.8 67.3,22.5 77.6,25.7 84.5,30.5 Z m 46.7,24.2 c 13.4,1.0 24.1,6.0 30.3,15.9 6.6,10.7 8.7,16.7 8.8,29.8 0.1,13.4 -1.3,22.3 -4.5,33.4 -2.4,8.2 -6.9,16.4 -11.4,22.9 -4.5,6.4 -8.3,10.8 -11.1,13.4 -4.5,4.0 -9.2,6.2 -14.2,6.3 -3.6,0.1 -8.0,-1.0 -13.1,-3.1 -5.1,-2.1 -9.8,-3.1 -14.1,-3.1 -4.5,0 -9.4,1.0 -14.5,3.1 -5.2,2.1 -9.4,3.2 -12.6,3.3 -4.9,0.2 -9.6,-2.0 -14.5,-6.4 -3.0,-2.8 -6.9,-7.3 -11.6,-13.9 C 43.8,149.4 39.7,141.2 36.5,132 c -3.4,-10.0 -5.1,-19.6 -5.1,-28.9 0,-10.7 2.3,-19.9 6.9,-27.7 3.6,-6.2 8.5,-11.1 14.6,-14.7 6.1,-3.6 12.6,-5.5 19.7,-5.6 3.9,-0.1 8.9,1.2 15.2,3.5 6.3,2.4 10.3,3.6 12.1,3.6 1.3,0 5.6,-2.0 13.4,-4.2 6.4,-1.8 12.0,-3.7 17.9,-3.3 z M 89.5,78.8 v 45.8 H 74.8 l 27.2,33.1 27.2,-33.1 H 113.8 V 78.8 Z"/></symbol>
      <symbol id="icon-edit" viewBox="0 0 100 100"><path d="M 50,0 C 22.4,0 0,22.4 0,50 0,77.6 22.4,100 50,100 77.6,100 100,77.6 100,50 100,22.4 77.6,0 50,0 Z m 21.8,13 c 1.6,0 3.0,0.6 4.2,1.7 1.1,1.1 6.2,6.2 9.3,9.3 1.1,1.1 1.7,2.5 1.7,4.2 0,1.6 -0.6,3.0 -1.7,4.2 L 79.7,38.0 62.0,20.3 67.7,14.7 C 68.8,13.6 70.2,13 71.8,13 Z M 58.1,24.3 75.7,41.9 34.6,83 H 17 V 65.4 Z m -1.0,8.9 -21.4,21.4 c -0.7,0.7 -0.7,1.4 -0.1,2.0 0.7,0.7 1.3,0.6 2.0,-0.1 L 59.0,35.1 c 0.7,-0.7 0.7,-1.4 0.1,-2.0 -0.8,-0.7 -1.4,-0.5 -2.0,0.1 z M 30.0,60.7 22.9,67.8 v 3.4 h 5.9 V 77.1 h 3.4 l 7.1,-7.1 z"/></symbol>
    </g>
    <g id="markers">
      <marker id="start-arrow" viewBox="0 -5 10 10" refX="4" markerWidth="3" markerHeight="3" orient="auto"><path d="M10,-5L0,0L10,5" fill="#000"/></marker>
      <marker id="end-arrow" viewBox="0 -5 10 10" refX="6" markerWidth="3" markerHeight="3" orient="auto"><path d="M0,-5L10,0L0,5" fill="#000"/></marker>
    </g>
  </defs>
  <g id="container">
    <g id="links"/>
    <g id="markers"/>
    <g id="nodes"/>
  </g>
  <script type="text/javascript" xlink:href="https://cdnjs.cloudflare.com/ajax/libs/d3/5.7.0/d3.min.js"></script>
  <script type="text/javascript" xlink:href="https://cdnjs.cloudflare.com/ajax/libs/d3-transform/1.0.4/d3-transform.min.js"></script>
  <script type="text/javascript" xlink:href="src/menu.js"></script>
  <script type="text/javascript" xlink:href="src/routines.js"></script>
  <script type="text/javascript" xlink:href="src/data.js"></script>
  <script type="text/javascript" xlink:href="src/main.js"></script>
</svg>
